<svg width="73" height="81" viewBox="0 0 73 81" fill="none" xmlns="http://www.w3.org/2000/svg">
<circle cx="36.5" cy="40.5" r="36.5" fill="#AD00FF"/>
<path d="M17.196 47L24.252 20.72H27.348L34.404 47H31.992L30.084 39.656H21.48L19.608 47H17.196ZM22.02 37.604H29.544L27.024 27.992C26.664 26.6 26.376 25.436 26.16 24.5C25.968 23.564 25.848 22.952 25.8 22.664C25.752 22.952 25.62 23.564 25.404 24.5C25.188 25.436 24.9 26.6 24.54 27.992L22.02 37.604Z" fill="#181818"/>
<path d="M40.708 60V33.72H46.864C48.544 33.72 49.984 34.056 51.184 34.728C52.408 35.376 53.356 36.288 54.028 37.464C54.724 38.64 55.072 40.032 55.072 41.64V52.08C55.072 53.664 54.724 55.056 54.028 56.256C53.356 57.432 52.408 58.356 51.184 59.028C49.984 59.676 48.544 60 46.864 60H40.708ZM43.084 57.84H46.864C48.64 57.84 50.056 57.324 51.112 56.292C52.168 55.26 52.696 53.856 52.696 52.08V41.64C52.696 39.888 52.168 38.496 51.112 37.464C50.056 36.408 48.64 35.88 46.864 35.88H43.084V57.84Z" fill="#181818"/>
<circle cx="36.5" cy="40.5" r="30" stroke="#181818"/>
</svg>
